<svg xmlns="http://www.w3.org/2000/svg" viewBox="0 0 105.98 39.81"><defs><style>.cls-1{fill:#03a9f4;}</style></defs><title>Asset 3</title><g id="Layer_2" data-name="Layer 2"><g id="Layer_1-2" data-name="Layer 1"><path class="cls-1" d="M36.77,8.46A10.68,10.68,0,1,0,47.45,19.13,10.67,10.67,0,0,0,36.77,8.46Zm0,16.4a5.73,5.73,0,1,1,5.73-5.73A5.72,5.72,0,0,1,36.77,24.86Z"/><path class="cls-1" d="M95.9,23.93V15.16c0-5-3.08-6.67-8.67-6.7H71V2.81H65.25V8.46H62c-3.55,0-5.42.61-7.18,3.17l0-3.87H50.1c0,1.75-.07,21.6-.07,21.6l4.79,0,.06-7.44c.19-7.62,3-9.19,7.15-9.08h3.22v11c0,3.65,1.34,5.83,5.41,5.83a13.14,13.14,0,0,0,3.89-.4v-4a10.83,10.83,0,0,1-1.32.07c-1.72,0-2.21-.62-2.21-2.2V12.8h6.34l8.61,0c2.68,0,4.3.78,4.3,2.26v1.28h-3c-6.12,0-9.93,2.19-9.93,6.94,0,3.24,2.12,6.55,7.15,6.55,3.69,0,5.11-1.35,5.87-2.53a8.58,8.58,0,0,0,.29,2h5.52A46.57,46.57,0,0,1,95.9,23.93Zm-5.63-3.56c0,2.76-.45,5.31-4.12,5.31a2.68,2.68,0,0,1-3-2.78c0-2,1.29-3.07,4.77-3.07h2.35Z"/><path class="cls-1" d="M100.2,29.42V0H106V29.42Z"/><path class="cls-1" d="M11.71,5.13,0,11.7V24.83l11.71,6.56,5.89-3.3V39.81l5.82-3.27V11.7ZM17.6,21.56l-5.89,3.3-5.89-3.3V15l5.89-3.3L17.6,15Z"/></g></g></svg>